<?xml version="1.0" encoding="utf-8"?>
<!-- Generator: Adobe Illustrator 27.0.0, SVG Export Plug-In . SVG Version: 6.00 Build 0)  -->
<svg version="1.1" id="Layer_1" xmlns="http://www.w3.org/2000/svg" xmlns:xlink="http://www.w3.org/1999/xlink" x="0px" y="0px"
	 viewBox="0 0 82.08 81.84" style="enable-background:new 0 0 82.08 81.84;" xml:space="preserve">
<style type="text/css">
	.st0{fill-rule:evenodd;clip-rule:evenodd;fill:#FBB581;}
	.st1{fill:#3E3E3E;}
	.st2{fill:#0E1A25;}
</style>
<path class="st0" d="M41.04,6.99c18.69,0,33.84,15.15,33.84,33.84S59.73,74.67,41.04,74.67S7.2,59.52,7.2,40.83
	S22.35,6.99,41.04,6.99z"/>
<path class="st1" d="M54.88,79.56l20.18-51.54h-6.96L54.17,65.47c-1.05,2.81-1.98,5.62-2.78,8.44c-0.73-2.62-1.63-5.44-2.71-8.44
	L35.29,28.03h-7.38l19.97,51.54H54.88z"/>
<path class="st2" d="M12.77,53.77V30.89h6.46c1.87,0,3.33,0.25,4.37,0.76c1.04,0.5,2.12,1.48,3.23,2.94
	c1.11,1.46,2.76,4.28,4.94,8.47l6.15,10.7l6.52,0.01l-7.38-14.03c-1.27-2.41-2.73-4.61-4.39-6.57c-0.82-0.97-2.02-1.92-3.59-2.87
	c3.87-0.66,6.81-2.19,8.84-4.6c2.03-2.41,3.04-5.56,3.04-9.45c0-2.95-0.6-5.55-1.79-7.78c-1.2-2.24-2.72-3.84-4.59-4.8
	s-4.75-1.44-8.67-1.44H7.18v51.54H12.77z M12.77,7.93h13.36c3,0,5.26,0.74,6.79,2.23c1.52,1.49,2.29,3.53,2.29,6.13
	c0,1.81-0.4,3.39-1.2,4.75c-0.8,1.36-1.88,2.36-3.23,2.99c-1.36,0.63-3.35,0.95-5.98,0.95H12.77V7.93z"/>
</svg>
