<?xml version="1.0" encoding="utf-8"?>
<!-- Generator: Adobe Illustrator 27.0.0, SVG Export Plug-In . SVG Version: 6.00 Build 0)  -->
<svg version="1.1" id="Layer_1" xmlns="http://www.w3.org/2000/svg" xmlns:xlink="http://www.w3.org/1999/xlink" x="0px" y="0px"
	 viewBox="0 0 960 1554.14" style="enable-background:new 0 0 960 1554.14;" xml:space="preserve">
<style type="text/css">
	.st0{fill-rule:evenodd;clip-rule:evenodd;fill:#CB5727;}
</style>
<path class="st0" d="M640,141.33c2-0.33,4-0.67,6-1c1.39-15.83,2.54-17.59,11-26c9.33-0.39,14.82,1.34,17,8
	c3.19,4.08,2.16,14.85,2,22c4.95,1.21,10.63,2.72,17,3c0-0.33,0-0.67,0-1c0.33,0,0.67,0,1,0c0.59-5.37,2.86-9.62,4-14
	c2.2-8.47,1.27-19.71,3-27c4.69-3.19,5.6-5.86,14-6c1.38,1.11,2.87,1.49,5,2c10.81,16.59,0.74,35.41-1,53c3.04,1.64,7.15,4.26,9,7
	c2,6.33,4,12.67,6,19c4.54,10.44,11.55,21.39,16,32c2.54,6.05,2.21,14.16,6,19c1.52-16.66,5.17-28.91,14-38c4.58-0.07,8.7,0.32,12,1
	c1.56,2.39,2.92,2.92,4,6c3.93,5.01-0.13,16.91-2,24c-6.58,24.93-5.28,59.04-18,78c15.9,4.75,7.33,24.43,16,30
	c2.07-1.66,4.16-1.91,8-2c1.77-17.76,6.91-37.22,11-54c19.69-13.56,31.17-0.1,25,24c-0.53,2.05-2.84,5.83-2,9
	c0.87,3.27,5.69,5.64,4,12c-4.38,16.47-16.82,31.82-20,50c12.85-4.3,13.99,8.18,19,15c0.3-8.11,6.49-37.86,11-41
	c6.48-4.52,17.22-1.14,20,4c4.61,8.53-4.84,38.04-7,46c-2.91,10.71-0.31,21.23-3,33c-4.92,21.53-4.03,45.26-12,64
	c-4.91,11.55-12.56,17.16-21,25c-6.22,0.1-9.61-0.94-14-2c-1.77-2.8-5.02-5.6-6-9c-3.35-11.61,7.11-33.43,2-42
	c-1.28,11.36-6.65,23.76-10,34c-9.2,28.1-15.61,64.78-53,64c-3.78-3.59-8.77-4.79-11-10c-1.66-3.87,0.13-11.54-2-15
	c-0.49,5.62-2.33,9.46-7,11c-2.28,2.09-5.34,2.11-10,2c-3.11-3.04-5.96-5.89-9-9c-0.43-15.11,6.62-23.44,11-34
	c8.49-20.44,14.69-40.91,23-60c4.86-11.16,4.7-21.12,21-21c2.17,2.12,5.49,4.38,8,6c0-9,0-18,0-27c2.04-2.94,2.02-18.06,0-21
	c0.2,15.66-3.46,22.52-11,30c-4.84,0.08-9.47-0.28-13-1c-11.71-18.8-13.6-46.02-20-70c-2.12-7.95-0.73-22.34-7-26
	c-3.38,2.27-7.64-0.11-11-1c-1.66-2.66-4.85-4.98-6-8c-3.5-9.21,0.99-21.93-1-31c-1.61-7.36,1.3-17.57-4-21c0,0.67,0,1.33,0,2
	c-2.6,2.8-2.73,6.69-5,10c-1.8,2.62-5.72,3.8-8,6c-2.67,0-5.33,0-8,0c-2.87-2.67-5.49-2.72-7-7c-6.11-6.6-1.29-24.18-1-35
	c-2.67,0.33-5.33,0.67-8,1c-3.91,9.28-7.26,14.35-21,14c-3.74-3.75-9.47-6.11-12-11c-3.4-6.55-1.86-14-4-22
	c-3.98-14.9-8.86-30.25-15-43c-0.33,0-0.67,0-1,0c0,3.33,0,6.67,0,10c-7.37,12.56,2.06,38.4-12,44c-4.41,4.14-9.53,2.61-14,0
	c-10.7-6.26-9.56-26.81-9-44c-0.33,0-0.67,0-1,0c0,0.33,0,0.67,0,1c-12.83,12.41-20.77,25.52-37,35c-4.8,2.81-11.34,8.62-18,4
	c-3.44-1.08-4.88-2.6-6-6c-3.66-4.6-1.08-12.09,1-17c5.67-13.37,12.87-27.42,17-42c-0.33,0-0.67,0-1,0
	c-10.62,15.95-29.62,26.11-43,39c-4.58,0.07-8.7-0.32-12-1c-2-2.33-4-4.67-6-7c-0.59-16.74,7.42-29.79,11-45c-0.33,0-0.67,0-1,0
	c-13.19,19.82-36.15,32.59-53,49c-5.54,0.04-7.97-1.02-12-2c-1.28-2.07-2.08-2.3-3-5c-5.36-6.68,4.98-33.58,7-42c-0.33,0-0.67,0-1,0
	c-4.07,7.13-10.4,12.61-15,19c-5.93,8.25-10.47,20.57-19,26c-3.03,1.93-7.21,1.99-12,2c-1.38-1.11-2.87-1.49-5-2
	c-7.31-11.74-9.19-27.73-13-44c-2.09-8.91,0.49-21.05-4-28c-4.58,7.04-12.05,12.33-17,19c-11.16,15.05-21.66,30.16-35,43
	c-24.29,0.38-11.24-11.31-18-23c-3.68,5.58-10.09,8.82-14,14c-5.85,7.76-12.2,18.34-20,24c-2.37,1.72-4.97,2.06-7,4
	c-4.76,0.23-7.62,1.41-11-1c-3.62-1.14-5.82-3.41-7-7c-5.71-7.38-1.31-30.17-1-40c-0.33,0-0.67,0-1,0c0,0.33,0,0.67,0,1
	c-13.77,13.89-19.53,35.83-33,50c-4.69,0.41-7.59,1.52-11-1c-4.31-1.5-4.31-4.16-7-7c-0.3-11.65,3.34-16.62,7-24c-0.33,0-0.67,0-1,0
	c-4.71,8.45-10.96,16.74-16,25c-6.98,11.45-6.37,28.04-25,28c-3.21-2.75-6-5.17-9-8c-0.47-13.66,5.02-24.23,8-37c-0.33,0-0.67,0-1,0
	c-6.69,11.65-15.54,22.94-25,32c-4.58,0.07-8.7-0.32-12-1c-7.82-11.62-5.41-18.41-4-35c-0.33,0-0.67,0-1,0c0,0.33,0,0.67,0,1
	c-0.33,0-0.67,0-1,0c-4.88,11.09-13.32,20.08-18,31c-2.62,6.11-1.59,10.74-8,13c-2.23,1.79-4.8,2-9,2c-4.19-3.32-7.85-3.37-9-10
	c-3.1-4.93,0.33-24.14,3-28c2.31-3.34,7.15-2.3,10-5c3.78-3.58,9.63-18.66,13-24c7.52-11.92,17.45-20.25,27-30
	c4.84-0.08,9.47,0.28,13,1c2.18,3.46,5.76,6.57,7,11c1.36,4.86-1.23,11.46,1,15c8.23-14.13,19.11-25.57,30-37
	c8.91-0.41,14.87,0.63,17,7c2.9,3.94,0.24,13.57,3,18c3.2-4.97,21.1-20.39,27-22c5.92-1.61,10.08,1.94,14,3
	c1.8-7.28,10.13-20.66,17-23c2.38-1.91,5.49-2.06,10-2c1.67,1.4,4.25,1.57,6,3c1.65,1.35,2.43,4.47,4,6c1.15,16.41,0.03,33.86,0,51
	c0.33,0,0.67,0,1,0c0-0.67,0-1.33,0-2c14.59-9.83,33.64-45.53,52-46c2.65,2.57,7.05,3.77,9,7c1.75,2.89,1.18,7.4,3,10
	c8.91-14.37,28.09-39.18,51-39c2.25,2.23,9.73,9.86,12,11c6.75-10.29,33.43-33.9,50-34c2.85,2.76,6.13,5.31,9,8
	c0.6,9.45-2.79,13.1-5,21c0.33,0,0.67,0,1,0c3.45-5.52,7.9-8.96,17-9c3.1,2.78,7.97,8.88,12,10c7.11-6.81,17.09-11.06,25-17
	c10.58-7.94,15.82-22.69,32-25c3.59,2.64,8.81,3.08,11,7c2.97,5.32,0.45,11.87,2,19c3.27,15.06,4.15,32,7,46c0.33,0,0.67,0,1,0
	c4.89-5.71,27.01-8.88,29-13c0-6.33,0-12.67,0-19c2.63-4.25,2.98-15.47,4-20c2.55-1.64,5.03-5.03,8-6c4.04-1.32,8.14,0.85,10,0
	c9.7-10.76,16.37-41.28,30-46c4.25-3.49,10.28-1.23,15,0c2.78,4.25,7.32,7.66,10,12c6.21,10.06,9.8,24.84,13,37
	C645.19,87.88,639.92,116.1,640,141.33z"/>
<path class="st0" d="M603,95.33c-6.42,9.83-22.13,23.5-32,30c0,0.33,0,0.67,0,1c0.33,0,0.67,0,1,0c1.73,1.83,3.53,2.81,5,5
	c4.21-2.47,6.79-3.96,14-4c8.26,6.44,17.46,9.93,21,21c0.33,0,0.67,0,1,0c0-1.33,0-2.67,0-4C606.07,133.38,610.98,104.33,603,95.33z
	"/>
<path class="st0" d="M435,120.33c-1.33,6-2.67,12-4,18c0.67,0,1.33,0,2,0c9.67-10.33,19.33-20.67,29-31c-0.33,0-0.67,0-1,0
	C455.48,112.92,444.2,119.04,435,120.33z"/>
<path class="st0" d="M378,109.33c-6.56,8.24-15.13,9.47-15,25c1.85,2.77,1.99,8.72,2,13c0.33,0,0.67,0,1,0
	c5.13-8.61,16.81-16.6,19-27C380.25,118.03,380.88,113.4,378,109.33z"/>
<path class="st0" d="M496,134.33c-1,2.33-2,4.67-3,7c0.33,0,0.67,0,1,0C495.65,138.87,497.96,137.7,496,134.33z"/>
<path class="st0" d="M553,134.33c-2.22,9.35-7.62,16.53-10,26c0.33,0,0.67,0,1,0c0-0.67,0-1.33,0-2c4.66-2.96,9.88-8.62,11-15
	C553.86,141.47,554.17,136.18,553,134.33z"/>
<path class="st0" d="M621,163.33c3.2,7.2,5.83,15.38,9,23c0.33,0,0.67,0,1,0c-0.07-8.42,2.29-13.72,4-20c-2.89-2.04-2.55-2.86-8-3
	C625.34,164.16,624.41,163.57,621,163.33z"/>
<path class="st0" d="M685,175.33c-1.07,2.82-1.89,10.25,0,13C685.19,183.47,686.73,178.15,685,175.33z"/>
<path class="st0" d="M715,201.33c0.26,14.17-5.65,18.03-9,27c2.71,4.03,2.15,11.1,5,15c0-0.67,0-1.33,0-2
	c2.62-2.93,11.49-21.82,12-26C719.5,211.5,718.59,205.07,715,201.33z"/>
<path class="st0" d="M114,343.33c3.97,0.38,7.7,2.93,9,2c4.93-5.33,5.47-9.82,15-11c5.72,4.59,11.95,4.03,20,6
	c1.5,2.69,2.71,5.65,4,9c3.25-3.45,5.8-7.6,9-11c7.06-0.12,20.28-0.45,24,2c2.72,1.8,2.82,5.32,6,7c7.71-6.96,11.55,1.57,17,0
	c2.34-0.67,4.52-4.22,11-5c4.12,3.18,7.22,3.36,10,8c4.59-1.79,7.17,0.23,12-1c0.78-0.2,3.22-2.77,4-3c18.09-5.3,14.33,16.54,12,25
	c-0.33,4.33-0.67,8.67-1,13c-5.21,12.65-26.44,39.22-46,33c-2.89-0.92-6.85-3.04-11-4c-2.63-4.35-4.12-7.05-3-13c-0.67,0-1.33,0-2,0
	c-4.5,2.55-6.96-1.99-10-3c-3.67,0.33-7.33,0.67-11,1c-6.21-2.26-5.38-8.05-17-10c-3.63,5.38-9.89,9.01-19,9
	c-3.23-2.95-14.79-16.02-18-14c-2,1.67-4,3.33-6,5c-3.95,0.03-8.4,0.41-11-1c-0.67-1-1.33-2-2-3c-0.78-0.21-9.91,3.2-16,2
	c-1.28-2.07-2.08-2.3-3-5c-0.75-1.07-0.6-0.95-1-3c-1.67,0-3.33,0-5,0c-1.35,6.84-4.79,9.96-13,10c-10.31-9.13-6.93-3.51-21-6
	c-5.5-8.43-6.88-19.92-4-32c1.67-1,3.28-3.38,5-4c7.17-2.6,15.73,1.02,20-2c3.97-4.34,4.9-9.66,10-13c-3.3-3.34-7.69-5.67-9-11
	c-1.28-5.19,1.95-15.18,3-20c0-5,0-10,0-15c1.74-7.87,2.31-18.35,4-26c2.97-13.47-0.63-30.85,2-42c7.45-4.98,8.85-5.74,19-3
	c9.4,15.52,5.1,51.89,1,70c-2.75,12.16,1.13,23.01-2,34c-1.6,5.63-6.13,7.98-8,13c0.33,0,0.67,0,1,0c3.42,2.68,10.52-0.09,16,2
	C111.17,336.73,113.22,338.21,114,343.33z"/>
<path class="st0" d="M731,265.33c-4,12.67-8,25.33-12,38c22.48,0.94,12.64,19.05,21,32c0-0.67,0-1.33,0-2c2.63-3.88,2.06-9.21,4-14
	c2.23-5.51,5.97-10.43,9-15C735.65,299.34,740.23,278.36,731,265.33z"/>
<path class="st0" d="M478,332.33c5.37-0.06,9.78-0.09,13,2c0.33,1,0.67,2,1,3c3-0.33,6-0.67,9-1c1.17,0.29,3.16,1.57,5,2
	c6.04,9.9,10.3,21.51,15,33c0.33,0,0.67,0,1,0c0-0.33,0-0.67,0-1c3.11-3.04,6.04-6.83,9-10c11.16-0.03,9.72,4.65,16,8
	c4.71-7.54,11.36-5.22,19-3c3.85-7.07,17.24-15.85,24-5c6.47,10.39,2.89,26.81,0,37c-1.46,0.85-2.87,1.81-4,3
	c-4.33,0.24-5.89,1.23-9-1c-4.2-1.58-3.17-3.88-8-5c-5.24,4.84-12.83-0.92-15-1c-3.8,2.53-8.38,9.9-17,7c-2.19-0.74-3.92-5.71-7-5
	c-1.33,2-2.67,4-4,6c-2.6,1.8-6.4,2.51-10,3c-1.38-1.11-2.87-1.49-5-2c-1.98-3.17-4.47-7.93-7-11c0,0.67,0,1.33,0,2
	c-2.6,2.96-2.6,7.7-5,11c-2.75,3.77-6.48,1.65-11,4c-1.37,0.71-1.02,2.79-2,4c-4.39,5.38-14.29,8.03-21,3c-5.33-4-4.54-15.42-10-19
	c-7.81,11.9-18.81,0.33-22-8c-6.45,6.64-6.11,13.13-20,13c-3.4-3.65-7.44-6.51-11-10c-3.34,1.28-6.72,5.49-9,8
	c-4.33-0.33-8.67-0.67-13-1c-2.29,5.64-4.06,14.87-10,17c-2.04,1.88-3.84,2-8,2c-1.24-1.22-3.91-1.69-5-3c-1.44-1.73-1.6-4.34-3-6
	c0,0.33,0,0.67,0,1c-2.67,3-5.33,6-8,9c-9.55,5-16.1-4.03-16-13c10.47-13.88,11.94-57.64,32-59c2.78,2.24,5.48,3.69,8,6
	c0.46-6.01,2.02-10.35,7-12c4.97-3.93,11.64,0.44,17,2c1.81-5.72,6.18-6.33,14-6l6,9c2.18,1.56,6.99-0.29,9,1
	c3.15,2.02,3.67,7.12,6,10c2.66-4.14,5.96-5.13,13-5c1.57,1.54,4.71,2.24,6,4c1.51,2.06,1.34,4.26,3,6c3.2-4.41,10.95-3.69,14-8
	c2.33-5.33,4.67-10.67,7-16C474,335.67,476,334,478,332.33z"/>
<path class="st0" d="M287,394.33c4.69,0.12,6.37,1.12,10,2c1.67,2,3.33,4,5,6c0.46,14.65-6.69,22.71-11,33
	c-7.06,16.85-12.18,34.72-18,52c-11.7,34.76-23.33,69.64-34,104c-4.06,13.08-3.34,24.53-7,38c-5.49,20.22-11.06,43.4-17,65
	c-0.67,6-1.33,12-2,18c-4.8,19.75-13.29,78.56,11,80c4.57,2.78,13.22-1.54,17-3c8.14-3.14,18.05-7.98,22-15c1.47-2.61,0.44-5.64,2-8
	c2.33-1.67,4.67-3.33,7-5c8.52-0.37,13.01,0.91,15,7c7.85,10.13-5.24,23.24-10,28c-15.47,15.47-61.13,37.64-81,10
	c-5.38-7.48-11.36-18.8-14-28c-2.78-9.69-0.9-24.57,1-33c3.83-16.98,1-32.12,5-48c6.08-24.13,11.73-49.72,18-72
	c4-14.24,3.51-27.14,8-41c10.28-31.74,22.77-65.8,33-97c8.11-24.72,14.94-47.06,24-69c2.72-6.58,3.13-12.78,7-18
	C280.07,397.54,284.3,396.53,287,394.33z"/>
<path class="st0" d="M800,428.33c-0.56,1.6-0.8,2.4-1,5c0.33,0,0.67,0,1,0c0-0.67,0-1.33,0-2
	C800.88,429.61,800.89,430.06,800,428.33z"/>
<path class="st0" d="M109,436.33c24.02-0.43,52.16,10.79,61,25c4.22,6.79,5.17,22.58,3,32c-6.32,27.39-10.18,38.26-36,46
	c-4.79,1.44-10.89,0.9-15,0c-5.04-1.1-9.99,0.66-14-1c-17.11-7.1-33.7-41.39-25-71c2.55-8.66,9.33-21.17,16-26
	C102.03,439.14,106.09,438.59,109,436.33z"/>
<path class="st0" d="M760,438.33c-0.13,7.74-3.98,21.1-1,26c0.94-8.27,5.06-14.2,7-22C762.91,441.31,762.37,439.9,760,438.33z"/>
<path class="st0" d="M449,448.33c35.07-0.57,40.63,4.07,55,24c3.05,4.23,7.81,7.64,10,13c8.53,20.9,5.34,49.28-11,59
	c-24.76,14.73-69.6,8.23-82-12c-5.11-8.34-1.89-18.52-4-31c-0.62-3.68-0.94-16.8,1-22c3.73-9.98,12.41-21.69,21-27
	C442.07,450.43,446.11,450.35,449,448.33z"/>
<path class="st0" d="M755,484.33c0.15,12.56-1.26,28.43-5,39c0.33,0,0.67,0,1,0c0-0.33,0-0.67,0-1c5.7-6.13,9.73-21.29,11-31
	C758.4,489.43,757.67,486.96,755,484.33z"/>
<path class="st0" d="M56,556.33c3.28-0.12,7.18-0.24,9,1c3.17,1.02,4.4,2.53,6,5c4.41,5.88,1.82,21.74,0,29
	c-7.7,30.77-0.65,72.9-6,108c-7.22,47.34,2.86,101.47,11,138c0.33,24,0.67,48,1,72c1.71,7.78-0.25,19.34,2,29
	c2.91,12.48,7.45,23.92,11,35c1.33,8,2.67,16,4,24c4.24,11.19,18.91,19.2,28,26c11.83,8.86,20.84,23.79,35,30
	c25.45,11.17,56.31,14.3,86,21c9.33,0.67,18.67,1.33,28,2c13.77,2.98,30.18,3.01,44,6c8.67,0.33,17.33,0.67,26,1
	c36.34,7.71,70.17-1.43,96-12c14.28-5.84,29.43-8.34,42-16c27.15-16.54,49.66-38.1,75-57c8.33-9.33,16.67-18.67,25-28
	c20.7-20.63,47.04-37.86,64-62c14.84-21.11,22.36-43.16,29-73c4.73-21.26-9.67-70.95,5-81c2.67-2.09,7.5-2.48,11-1
	c15.84,6.69,4.94,29.37,9,48c9.82,45.04-14.46,93.52-30,118c-15.78,24.87-41.09,42.1-62,62c-6.16,5.86-11.81,12.13-17,19
	c-3.67,3.33-7.33,6.67-11,10c-1.59,2.09-1.97,4.46-4,6c-27.69,21-52.8,45.07-83,63c-10.77,6.39-22.95,8.09-35,13
	c-18.9,7.71-40.08,14.79-62,20c-8.6,2.05-20.77-0.6-28-1c-23.88-1.31-48.56-1.05-70-6c-18-1.67-36-3.33-54-5
	c-31.84-7.38-64.39-10.3-92-22c-18.78-7.96-29.8-24.63-45-36c-12.27-9.17-27.79-19.06-34-34c-1.67-9.33-3.33-18.67-5-28
	c-3.2-10.5-7.9-22.3-11-34c-2.74-10.35-0.88-25.63-3-35c0-12.67,0-25.33,0-38c0-22.71-1.21-40.79-6-59
	c-6.83-25.95-11.89-84.71-5-116c4.2-19.07-3.03-44.73,1-63c0-6.67,0-13.33,0-20C45.99,592.87,42.51,570.54,56,556.33z"/>
<path class="st0" d="M771,561.33c50.33-0.78,75.64,16.48,89,53c4.12,11.26,5.23,27.99,1,41c-10.91,33.52-36.65,55.52-63,74
	c-9.58,6.72-18.21,15.19-31,19c-12.55,3.74-31.85,0.35-42-2c-3.28-4.9-5.95-6.2-6-15c3.04-3.11,5.89-5.96,9-9
	c10.56,0.18,25.23,3.66,35,0c5.33-1.99,9.7-6.97,14-10c22.8-16.05,42.87-31.34,56-57c5.01-9.79,6.67-25.96,2-37
	c-11.84-27.98-48.91-39.19-80-23c-5.28,2.75-11.84,4.29-15,9c-4.58,6.82-5.42,32.48-6,43c-2.82,2.22-3.1,4.6-7,6
	c-3.97,3.25-8.45,1.19-13,0c-5.98-9.41-5.9-18.16-3-31c2.17-9.63-0.32-17.49,3-25c6.58-14.91,23.72-24.79,39-31
	C759,564.67,765,563,771,561.33z"/>
<path class="st0" d="M375,858.33c4.69,0.12,6.37,1.12,10,2c12.22,19.01-8.42,32.39-18,45c-9.16,12.05-20.14,14.23-36,20
	c-42.28,15.38-95.49,18.06-136-3c-12.66-6.58-28.44-16.26-36-28c-7.37-11.44,2.11-21,14-21c14.54,14.14,32.1,27.46,54,34
	c34.52,10.32,69.09,2.82,96-7c7.02-2.56,13.2-2.42,19-6c10-6.19,15.99-19.63,23-29C367.5,861.99,371.77,860.99,375,858.33z"/>
<path class="st0" d="M563,1045.33c2.74,0.24,5.31,0.72,7,2c3.62,1.14,5.82,3.41,7,7c5.65,7.34,3.06,39.67,3,53
	c-0.16,34.61,1.78,78.32-5,109c0,4,0,8,0,12c-4.13,18.31-0.58,20.99-12,33c-4.33-0.33-8.67-0.67-13-1c-2-2.33-4-4.67-6-7
	c-0.59-14.68,0.76-33.36,4-48c2.12-9.57,0.1-20.31,2-29c0-10.33,0-20.67,0-31c0.33-18.33,0.67-36.67,1-55c0-13.94-1.37-27.54,1-38
	c2.25-1.58,5.09-3.98,7-6C561.33,1046.14,561.83,1046.14,563,1045.33z"/>
<path class="st0" d="M359,1120.33c2.74,0.24,5.31,0.72,7,2c4.18,1.41,5.23,4.33,8,7c2.09,25.26-0.04,53.8-5,76
	c-2.4,10.75,0.16,23.06-2,33c-3.52,16.21,4.55,31.34-7,39c-2.52,2.02-6.21,2.1-11,2c-1.67-1.4-4.25-1.57-6-3
	c-1.65-1.35-2.43-4.47-4-6c-1.8-35.04-0.79-71.46,6-102c2.95-13.27,0.33-29.44,3-41c2.25-1.58,5.09-3.98,7-6
	C357.33,1121.14,357.83,1121.14,359,1120.33z"/>
<path class="st0" d="M347,1365.33c-27.33,3.67-54.67,7.33-82,11c-7.22,0.84-22.57,6.49-30,2c-7.02-2.04-9.28-7.55-9-17
	c2.14-2.41,3.32-6.2,6-8c9.46-6.34,38.21-6.02,51-9c8.51-1.98,19.84,0.37,26-4c-9.68-3.01-17.93-10.98-26-16
	c-19.27-11.98-49.56-26.32-56-50c-2.5-9.19,2.71-17.8,6-22c4.54-5.81,13.7-7.86,20-12c10.59-6.97,22.53-13.51,33-21
	c8.85-6.33,15.08-15.84,30-16c3.27,2.59,6.38,2.54,8,7c2.3,2.52,2.16,6.92,2,12c-18.19,18.32-43.7,36.17-68,48c0,0.33,0,0.67,0,1
	c0.33,0,0.67,0,1,0c13.12,19.65,49.08,34.02,70,47c6.14,3.81,19.46,15.58,26,17c10.67-1.67,21.33-3.33,32-5
	c25.46-6.04,52.84-4.96,77-11c25.71-6.43,51.58-5.42,77-12c24-6.21,49.72-8.08,74-15c31.86-9.08,64.13-17.81,92-30
	c15.32-6.7,28.73-12.92,42-21c5.17-3.15,10.99-3.85,15-8c-0.33,0-0.67,0-1,0c0-0.33,0-0.67,0-1c-17.03-0.24-35.68-5.19-51-9
	c-29.08-7.23-59.34-7.57-85-17c-10.41-3.83-36.62-10.49-24-29c2.33-1.67,4.67-3.33,7-5c10.77-0.22,13.97,3.6,21,6
	c9.23,3.15,19.06,4.58,28,7c36.56,9.91,76.7,10.91,113,20c20.54,5.14,45.73,0.69,46,26c-2.49,2.96-2.93,7.64-6,10
	c-15.22,11.68-35.42,16.92-52,27c-42.08,25.57-92.36,38.92-146,54c-24.95,7.02-51.34,8.73-76,15c-35,5.67-70,11.33-105,17
	c-7.62,1.8-34.03,1.55-37,6c0.33,0,0.67,0,1,0c8.38,7.62,20.02,10.92,30,17c28.15,17.13,60.86,31.42,92,45c16.06,7,40.38,7.16,40,31
	c-2.67,2.87-2.72,5.49-7,7c-7.29,5.82-31.88-5.91-39-9c-35.03-15.19-69.83-31.61-103-49c-9.24-4.85-18.29-11.61-27-17
	c-2.24-1.39-7.14-3.8-8-3c-5.22,8.16-4.05,22.24-7,32c-7.69,25.41-18.12,53.11-11,85c0,3.67,0,7.33,0,11c2.7,12.54,7.58,37.51-5,42
	c-4.11,3.38-9.37,1.21-14,0c-1.71-2.59-4.87-5.01-6-8c-3.69-9.77-0.68-21.07-3-32C316.41,1453.09,344.23,1418.01,347,1365.33z"/>
</svg>
